STARTFONT 2.1
FONT --Helv14C-Regular-R-Normal--17-170-72-72-P-92-FONTSPECIFIC-0
SIZE 17 72 72
FONTBOUNDINGBOX 17 17 0 -3
METRICSSET 2
STARTPROPERTIES 19
FONT_ASCENT 14
FONT_DESCENT 3
PIXEL_SIZE 17
RESOLUTION_X 72
RESOLUTION_Y 72
POINT_SIZE 170
FACE_NAME "Modern 14-point C"
FOUNDRY ""
FAMILY_NAME "Helv14C"
WEIGHT_NAME "Regular"
RELATIVE_WEIGHT 50
SLANT "R"
SPACING "P"
SETWIDTH_NAME "Normal"
RELATIVE_SETWIDTH 50
ADD_STYLE_NAME ""
AVERAGE_WIDTH 92
CHARSET_REGISTRY "FONTSPECIFIC"
CHARSET_ENCODING "0"
ENDPROPERTIES
CHARS 194
STARTCHAR char08
ENCODING 8
SWIDTH 529 0
DWIDTH 9 0
BBX 7 9 1 0
VVECTOR 5 14
SWIDTH1 0 -1000
DWIDTH1 0 -17
BITMAP 
80
80
90
B0
FE
B0
90
80
80
ENDCHAR
STARTCHAR char09
ENCODING 9
SWIDTH 529 0
DWIDTH 9 0
BBX 7 9 1 0
VVECTOR 5 14
SWIDTH1 0 -1000
DWIDTH1 0 -17
BITMAP 
02
02
12
1A
FE
1A
12
02
02
ENDCHAR
STARTCHAR char0C
ENCODING 12
SWIDTH 765 0
DWIDTH 13 0
BBX 11 13 1 -1
VVECTOR 7 14
SWIDTH1 0 -1000
DWIDTH1 0 -17
BITMAP 
FFE0
8020
8020
8020
8020
8020
8020
8020
8020
8020
8420
CE60
1F00
ENDCHAR
STARTCHAR char0D
ENCODING 13
SWIDTH 765 0
DWIDTH 13 0
BBX 11 12 1 -1
VVECTOR 7 14
SWIDTH1 0 -1000
DWIDTH1 0 -17
BITMAP 
1F80
0040
0020
0020
0020
0020
0020
2020
6040
FF80
6000
2000
ENDCHAR
STARTCHAR char1C
ENCODING 28
SWIDTH 529 0
DWIDTH 9 0
BBX 7 5 1 2
VVECTOR 5 14
SWIDTH1 0 -1000
DWIDTH1 0 -17
BITMAP 
20
60
FE
60
20
ENDCHAR
STARTCHAR char1D
ENCODING 29
SWIDTH 529 0
DWIDTH 9 0
BBX 7 5 1 2
VVECTOR 5 14
SWIDTH1 0 -1000
DWIDTH1 0 -17
BITMAP 
08
0C
FE
0C
08
ENDCHAR
STARTCHAR char1E
ENCODING 30
SWIDTH 529 0
DWIDTH 9 0
BBX 5 8 2 1
VVECTOR 5 14
SWIDTH1 0 -1000
DWIDTH1 0 -17
BITMAP 
20
70
F8
20
20
20
20
20
ENDCHAR
STARTCHAR char1F
ENCODING 31
SWIDTH 529 0
DWIDTH 9 0
BBX 5 8 2 1
VVECTOR 5 14
SWIDTH1 0 -1000
DWIDTH1 0 -17
BITMAP 
20
20
20
20
20
F8
70
20
ENDCHAR
STARTCHAR char20
ENCODING 32
SWIDTH 294 0
DWIDTH 5 0
BBX 0 0 0 -3
VVECTOR 0 -3
SWIDTH1 0 0
DWIDTH1 0 0
BITMAP 
ENDCHAR
STARTCHAR char21
ENCODING 33
SWIDTH 353 0
DWIDTH 6 0
BBX 1 11 2 0
VVECTOR 3 14
SWIDTH1 0 -1000
DWIDTH1 0 -17
BITMAP 
80
80
80
80
80
80
80
00
00
80
80
ENDCHAR
STARTCHAR char22
ENCODING 34
SWIDTH 412 0
DWIDTH 7 0
BBX 3 4 2 7
VVECTOR 4 14
SWIDTH1 0 -1000
DWIDTH1 0 -17
BITMAP 
A0
A0
A0
A0
ENDCHAR
STARTCHAR char23
ENCODING 35
SWIDTH 765 0
DWIDTH 13 0
BBX 12 10 0 1
VVECTOR 6 14
SWIDTH1 0 -1000
DWIDTH1 0 -17
BITMAP 
0440
0440
3FF0
0880
0880
1100
1100
FFC0
2200
2200
ENDCHAR
STARTCHAR char24
ENCODING 36
SWIDTH 529 0
DWIDTH 9 0
BBX 7 15 1 -2
VVECTOR 5 14
SWIDTH1 0 -1000
DWIDTH1 0 -17
BITMAP 
10
10
38
54
92
90
50
38
14
12
92
54
38
10
10
ENDCHAR
STARTCHAR char25
ENCODING 37
SWIDTH 765 0
DWIDTH 13 0
BBX 11 11 1 0
VVECTOR 7 14
SWIDTH1 0 -1000
DWIDTH1 0 -17
BITMAP 
7000
8840
8880
8900
7200
0400
09C0
1220
2220
4220
01C0
ENDCHAR
STARTCHAR char26
ENCODING 38
SWIDTH 647 0
DWIDTH 11 0
BBX 8 11 2 0
VVECTOR 6 14
SWIDTH1 0 -1000
DWIDTH1 0 -17
BITMAP 
30
48
48
50
20
51
8A
84
84
4A
31
ENDCHAR
STARTCHAR char27
ENCODING 39
SWIDTH 235 0
DWIDTH 4 0
BBX 1 4 1 7
VVECTOR 2 14
SWIDTH1 0 -1000
DWIDTH1 0 -17
BITMAP 
80
80
80
80
ENDCHAR
STARTCHAR char28
ENCODING 40
SWIDTH 353 0
DWIDTH 6 0
BBX 4 16 1 -3
VVECTOR 3 14
SWIDTH1 0 -1000
DWIDTH1 0 -17
BITMAP 
10
20
40
40
80
80
80
80
80
80
80
80
40
40
20
10
ENDCHAR
STARTCHAR char29
ENCODING 41
SWIDTH 353 0
DWIDTH 6 0
BBX 4 16 1 -3
VVECTOR 3 14
SWIDTH1 0 -1000
DWIDTH1 0 -17
BITMAP 
80
40
20
20
10
10
10
10
10
10
10
10
20
20
40
80
ENDCHAR
STARTCHAR char2A
ENCODING 42
SWIDTH 529 0
DWIDTH 9 0
BBX 7 5 1 5
VVECTOR 5 14
SWIDTH1 0 -1000
DWIDTH1 0 -17
BITMAP 
44
28
FE
28
44
ENDCHAR
STARTCHAR char2B
ENCODING 43
SWIDTH 765 0
DWIDTH 13 0
BBX 11 9 1 1
VVECTOR 7 14
SWIDTH1 0 -1000
DWIDTH1 0 -17
BITMAP 
0400
0400
0400
0400
FFE0
0400
0400
0400
0400
ENDCHAR
STARTCHAR char2C
ENCODING 44
SWIDTH 176 0
DWIDTH 3 0
BBX 2 3 0 -2
VVECTOR 1 14
SWIDTH1 0 -1000
DWIDTH1 0 -17
BITMAP 
40
40
80
ENDCHAR
STARTCHAR char2D
ENCODING 45
SWIDTH 765 0
DWIDTH 13 0
BBX 11 1 1 5
VVECTOR 7 14
SWIDTH1 0 -1000
DWIDTH1 0 -17
BITMAP 
FFE0
ENDCHAR
STARTCHAR char2E
ENCODING 46
SWIDTH 176 0
DWIDTH 3 0
BBX 2 1 1 0
VVECTOR 2 14
SWIDTH1 0 -1000
DWIDTH1 0 -17
BITMAP 
C0
ENDCHAR
STARTCHAR char2F
ENCODING 47
SWIDTH 353 0
DWIDTH 6 0
BBX 4 11 1 0
VVECTOR 3 14
SWIDTH1 0 -1000
DWIDTH1 0 -17
BITMAP 
10
10
10
20
20
40
40
40
80
80
80
ENDCHAR
STARTCHAR char30
ENCODING 48
SWIDTH 529 0
DWIDTH 9 0
BBX 7 11 1 0
VVECTOR 5 14
SWIDTH1 0 -1000
DWIDTH1 0 -17
BITMAP 
38
44
82
82
82
82
82
82
82
44
38
ENDCHAR
STARTCHAR char31
ENCODING 49
SWIDTH 529 0
DWIDTH 9 0
BBX 4 11 2 0
VVECTOR 4 14
SWIDTH1 0 -1000
DWIDTH1 0 -17
BITMAP 
10
10
F0
10
10
10
10
10
10
10
10
ENDCHAR
STARTCHAR char32
ENCODING 50
SWIDTH 529 0
DWIDTH 9 0
BBX 6 11 1 0
VVECTOR 4 14
SWIDTH1 0 -1000
DWIDTH1 0 -17
BITMAP 
30
48
84
84
04
08
10
20
40
80
FC
ENDCHAR
STARTCHAR char33
ENCODING 51
SWIDTH 529 0
DWIDTH 9 0
BBX 6 11 1 0
VVECTOR 4 14
SWIDTH1 0 -1000
DWIDTH1 0 -17
BITMAP 
30
48
84
84
08
38
04
84
84
48
30
ENDCHAR
STARTCHAR char34
ENCODING 52
SWIDTH 529 0
DWIDTH 9 0
BBX 7 11 1 0
VVECTOR 5 14
SWIDTH1 0 -1000
DWIDTH1 0 -17
BITMAP 
18
28
28
48
48
88
88
FE
08
08
08
ENDCHAR
STARTCHAR char35
ENCODING 53
SWIDTH 529 0
DWIDTH 9 0
BBX 7 11 1 0
VVECTOR 5 14
SWIDTH1 0 -1000
DWIDTH1 0 -17
BITMAP 
7C
40
40
40
78
44
02
02
82
44
38
ENDCHAR
STARTCHAR char36
ENCODING 54
SWIDTH 529 0
DWIDTH 9 0
BBX 7 11 1 0
VVECTOR 5 14
SWIDTH1 0 -1000
DWIDTH1 0 -17
BITMAP 
38
44
80
80
B8
C4
82
82
82
44
38
ENDCHAR
STARTCHAR char37
ENCODING 55
SWIDTH 529 0
DWIDTH 9 0
BBX 7 11 1 0
VVECTOR 5 14
SWIDTH1 0 -1000
DWIDTH1 0 -17
BITMAP 
FE
02
02
04
04
08
08
08
10
10
10
ENDCHAR
STARTCHAR char38
ENCODING 56
SWIDTH 529 0
DWIDTH 9 0
BBX 7 11 1 0
VVECTOR 5 14
SWIDTH1 0 -1000
DWIDTH1 0 -17
BITMAP 
38
44
82
82
44
38
44
82
82
44
38
ENDCHAR
STARTCHAR char39
ENCODING 57
SWIDTH 529 0
DWIDTH 9 0
BBX 7 11 1 0
VVECTOR 5 14
SWIDTH1 0 -1000
DWIDTH1 0 -17
BITMAP 
38
44
82
82
82
46
3A
02
02
44
38
ENDCHAR
STARTCHAR char3A
ENCODING 58
SWIDTH 176 0
DWIDTH 3 0
BBX 2 7 1 0
VVECTOR 2 14
SWIDTH1 0 -1000
DWIDTH1 0 -17
BITMAP 
C0
00
00
00
00
00
C0
ENDCHAR
STARTCHAR char3B
ENCODING 59
SWIDTH 176 0
DWIDTH 3 0
BBX 2 9 1 -2
VVECTOR 2 14
SWIDTH1 0 -1000
DWIDTH1 0 -17
BITMAP 
C0
00
00
00
00
00
40
40
80
ENDCHAR
STARTCHAR char3C
ENCODING 60
SWIDTH 529 0
DWIDTH 9 0
BBX 5 9 2 1
VVECTOR 5 14
SWIDTH1 0 -1000
DWIDTH1 0 -17
BITMAP 
08
10
20
40
80
40
20
10
08
ENDCHAR
STARTCHAR char3D
ENCODING 61
SWIDTH 765 0
DWIDTH 13 0
BBX 11 4 1 3
VVECTOR 7 14
SWIDTH1 0 -1000
DWIDTH1 0 -17
BITMAP 
FFE0
0000
0000
FFE0
ENDCHAR
STARTCHAR char3E
ENCODING 62
SWIDTH 529 0
DWIDTH 9 0
BBX 5 9 2 1
VVECTOR 5 14
SWIDTH1 0 -1000
DWIDTH1 0 -17
BITMAP 
80
40
20
10
08
10
20
40
80
ENDCHAR
STARTCHAR char3F
ENCODING 63
SWIDTH 529 0
DWIDTH 9 0
BBX 7 11 1 0
VVECTOR 5 14
SWIDTH1 0 -1000
DWIDTH1 0 -17
BITMAP 
38
44
82
02
04
08
10
00
00
10
10
ENDCHAR
STARTCHAR char40
ENCODING 64
SWIDTH 765 0
DWIDTH 13 0
BBX 11 11 1 0
VVECTOR 7 14
SWIDTH1 0 -1000
DWIDTH1 0 -17
BITMAP 
3F80
4040
8020
8F20
9120
9120
9320
8CC0
8000
4000
3F00
ENDCHAR
STARTCHAR char41
ENCODING 65
SWIDTH 647 0
DWIDTH 11 0
BBX 9 11 1 0
VVECTOR 6 14
SWIDTH1 0 -1000
DWIDTH1 0 -17
BITMAP 
0800
1400
1400
2200
2200
4100
7F00
4100
8080
8080
8080
ENDCHAR
STARTCHAR char42
ENCODING 66
SWIDTH 647 0
DWIDTH 11 0
BBX 8 11 2 0
VVECTOR 6 14
SWIDTH1 0 -1000
DWIDTH1 0 -17
BITMAP 
FC
82
82
82
FC
82
81
81
81
82
FC
ENDCHAR
STARTCHAR char43
ENCODING 67
SWIDTH 647 0
DWIDTH 11 0
BBX 9 11 1 0
VVECTOR 6 14
SWIDTH1 0 -1000
DWIDTH1 0 -17
BITMAP 
1E00
2100
4080
8080
8000
8000
8000
8080
4080
2100
1E00
ENDCHAR
STARTCHAR char44
ENCODING 68
SWIDTH 647 0
DWIDTH 11 0
BBX 8 11 2 0
VVECTOR 6 14
SWIDTH1 0 -1000
DWIDTH1 0 -17
BITMAP 
F8
84
82
81
81
81
81
81
82
84
F8
ENDCHAR
STARTCHAR char45
ENCODING 69
SWIDTH 529 0
DWIDTH 9 0
BBX 6 11 2 0
VVECTOR 5 14
SWIDTH1 0 -1000
DWIDTH1 0 -17
BITMAP 
FC
80
80
80
80
F8
80
80
80
80
FC
ENDCHAR
STARTCHAR char46
ENCODING 70
SWIDTH 529 0
DWIDTH 9 0
BBX 6 11 2 0
VVECTOR 5 14
SWIDTH1 0 -1000
DWIDTH1 0 -17
BITMAP 
FC
80
80
80
80
F8
80
80
80
80
80
ENDCHAR
STARTCHAR char47
ENCODING 71
SWIDTH 647 0
DWIDTH 11 0
BBX 9 11 1 0
VVECTOR 6 14
SWIDTH1 0 -1000
DWIDTH1 0 -17
BITMAP 
1E00
2100
4080
8080
8000
8000
8780
8080
4180
2280
1C80
ENDCHAR
STARTCHAR char48
ENCODING 72
SWIDTH 647 0
DWIDTH 11 0
BBX 7 11 2 0
VVECTOR 6 14
SWIDTH1 0 -1000
DWIDTH1 0 -17
BITMAP 
82
82
82
82
82
FE
82
82
82
82
82
ENDCHAR
STARTCHAR char49
ENCODING 73
SWIDTH 235 0
DWIDTH 4 0
BBX 1 11 1 0
VVECTOR 2 14
SWIDTH1 0 -1000
DWIDTH1 0 -17
BITMAP 
80
80
80
80
80
80
80
80
80
80
80
ENDCHAR
STARTCHAR char4A
ENCODING 74
SWIDTH 471 0
DWIDTH 8 0
BBX 5 11 1 0
VVECTOR 4 14
SWIDTH1 0 -1000
DWIDTH1 0 -17
BITMAP 
08
08
08
08
08
08
08
08
88
88
70
ENDCHAR
STARTCHAR char4B
ENCODING 75
SWIDTH 647 0
DWIDTH 11 0
BBX 8 11 2 0
VVECTOR 6 14
SWIDTH1 0 -1000
DWIDTH1 0 -17
BITMAP 
81
82
84
88
90
A0
D0
88
84
82
81
ENDCHAR
STARTCHAR char4C
ENCODING 76
SWIDTH 471 0
DWIDTH 8 0
BBX 5 11 2 0
VVECTOR 5 14
SWIDTH1 0 -1000
DWIDTH1 0 -17
BITMAP 
80
80
80
80
80
80
80
80
80
80
F8
ENDCHAR
STARTCHAR char4D
ENCODING 77
SWIDTH 882 0
DWIDTH 15 0
BBX 11 11 2 0
VVECTOR 8 14
SWIDTH1 0 -1000
DWIDTH1 0 -17
BITMAP 
8020
C060
A0A0
9120
8A20
8420
8020
8020
8020
8020
8020
ENDCHAR
STARTCHAR char4E
ENCODING 78
SWIDTH 706 0
DWIDTH 12 0
BBX 8 11 2 0
VVECTOR 6 14
SWIDTH1 0 -1000
DWIDTH1 0 -17
BITMAP 
81
C1
A1
A1
91
91
89
85
85
83
81
ENDCHAR
STARTCHAR char4F
ENCODING 79
SWIDTH 706 0
DWIDTH 12 0
BBX 10 11 1 0
VVECTOR 6 14
SWIDTH1 0 -1000
DWIDTH1 0 -17
BITMAP 
1E00
2100
4080
8040
8040
8040
8040
8040
4080
2100
1E00
ENDCHAR
STARTCHAR char50
ENCODING 80
SWIDTH 529 0
DWIDTH 9 0
BBX 6 11 2 0
VVECTOR 5 14
SWIDTH1 0 -1000
DWIDTH1 0 -17
BITMAP 
F0
88
84
84
84
88
F0
80
80
80
80
ENDCHAR
STARTCHAR char51
ENCODING 81
SWIDTH 706 0
DWIDTH 12 0
BBX 10 12 1 -1
VVECTOR 6 14
SWIDTH1 0 -1000
DWIDTH1 0 -17
BITMAP 
1E00
2100
4080
8040
8040
8040
8040
8040
4880
2500
1E00
0100
ENDCHAR
STARTCHAR char52
ENCODING 82
SWIDTH 647 0
DWIDTH 11 0
BBX 7 11 2 0
VVECTOR 6 14
SWIDTH1 0 -1000
DWIDTH1 0 -17
BITMAP 
F8
84
82
82
84
F8
84
82
82
82
82
ENDCHAR
STARTCHAR char53
ENCODING 83
SWIDTH 529 0
DWIDTH 9 0
BBX 7 11 1 0
VVECTOR 5 14
SWIDTH1 0 -1000
DWIDTH1 0 -17
BITMAP 
38
44
82
80
60
18
04
02
82
44
38
ENDCHAR
STARTCHAR char54
ENCODING 84
SWIDTH 529 0
DWIDTH 9 0
BBX 7 11 1 0
VVECTOR 5 14
SWIDTH1 0 -1000
DWIDTH1 0 -17
BITMAP 
FE
10
10
10
10
10
10
10
10
10
10
ENDCHAR
STARTCHAR char55
ENCODING 85
SWIDTH 588 0
DWIDTH 10 0
BBX 8 11 1 0
VVECTOR 5 14
SWIDTH1 0 -1000
DWIDTH1 0 -17
BITMAP 
81
81
81
81
81
81
81
81
81
42
3C
ENDCHAR
STARTCHAR char56
ENCODING 86
SWIDTH 647 0
DWIDTH 11 0
BBX 9 11 1 0
VVECTOR 6 14
SWIDTH1 0 -1000
DWIDTH1 0 -17
BITMAP 
8080
8080
4100
4100
4100
2200
2200
1400
1400
0800
0800
ENDCHAR
STARTCHAR char57
ENCODING 87
SWIDTH 941 0
DWIDTH 16 0
BBX 13 11 1 0
VVECTOR 8 14
SWIDTH1 0 -1000
DWIDTH1 0 -17
BITMAP 
8008
8008
8208
4210
4510
4510
28A0
28A0
28A0
1040
1040
ENDCHAR
STARTCHAR char58
ENCODING 88
SWIDTH 588 0
DWIDTH 10 0
BBX 9 11 0 0
VVECTOR 5 14
SWIDTH1 0 -1000
DWIDTH1 0 -17
BITMAP 
8080
4100
4100
2200
1400
0800
1400
2200
4100
4100
8080
ENDCHAR
STARTCHAR char59
ENCODING 89
SWIDTH 588 0
DWIDTH 10 0
BBX 7 11 1 0
VVECTOR 5 14
SWIDTH1 0 -1000
DWIDTH1 0 -17
BITMAP 
82
82
44
44
28
28
10
10
10
10
10
ENDCHAR
STARTCHAR char5A
ENCODING 90
SWIDTH 529 0
DWIDTH 9 0
BBX 7 11 1 0
VVECTOR 5 14
SWIDTH1 0 -1000
DWIDTH1 0 -17
BITMAP 
FE
02
04
08
08
10
20
20
40
80
FE
ENDCHAR
STARTCHAR char5B
ENCODING 91
SWIDTH 353 0
DWIDTH 6 0
BBX 4 16 1 -3
VVECTOR 3 14
SWIDTH1 0 -1000
DWIDTH1 0 -17
BITMAP 
F0
80
80
80
80
80
80
80
80
80
80
80
80
80
80
F0
ENDCHAR
STARTCHAR char5C
ENCODING 92
SWIDTH 353 0
DWIDTH 6 0
BBX 4 11 1 0
VVECTOR 3 14
SWIDTH1 0 -1000
DWIDTH1 0 -17
BITMAP 
80
80
80
40
40
20
20
20
10
10
10
ENDCHAR
STARTCHAR char5D
ENCODING 93
SWIDTH 353 0
DWIDTH 6 0
BBX 4 16 1 -3
VVECTOR 3 14
SWIDTH1 0 -1000
DWIDTH1 0 -17
BITMAP 
F0
10
10
10
10
10
10
10
10
10
10
10
10
10
10
F0
ENDCHAR
STARTCHAR char5E
ENCODING 94
SWIDTH 529 0
DWIDTH 9 0
BBX 4 2 2 12
VVECTOR 4 14
SWIDTH1 0 -1000
DWIDTH1 0 -17
BITMAP 
60
90
ENDCHAR
STARTCHAR char5F
ENCODING 95
SWIDTH 765 0
DWIDTH 13 0
BBX 13 1 0 -3
VVECTOR 7 14
SWIDTH1 0 -1000
DWIDTH1 0 -17
BITMAP 
FFF8
ENDCHAR
STARTCHAR char60
ENCODING 96
SWIDTH 529 0
DWIDTH 9 0
BBX 3 2 3 12
VVECTOR 5 14
SWIDTH1 0 -1000
DWIDTH1 0 -17
BITMAP 
C0
60
ENDCHAR
STARTCHAR char61
ENCODING 97
SWIDTH 529 0
DWIDTH 9 0
BBX 6 8 1 0
VVECTOR 4 14
SWIDTH1 0 -1000
DWIDTH1 0 -17
BITMAP 
78
84
04
7C
84
84
8C
74
ENDCHAR
STARTCHAR char62
ENCODING 98
SWIDTH 529 0
DWIDTH 9 0
BBX 6 11 2 0
VVECTOR 5 14
SWIDTH1 0 -1000
DWIDTH1 0 -17
BITMAP 
80
80
80
B0
C8
84
84
84
84
C8
B0
ENDCHAR
STARTCHAR char63
ENCODING 99
SWIDTH 529 0
DWIDTH 9 0
BBX 6 8 2 0
VVECTOR 5 14
SWIDTH1 0 -1000
DWIDTH1 0 -17
BITMAP 
38
44
80
80
80
80
44
38
ENDCHAR
STARTCHAR char64
ENCODING 100
SWIDTH 529 0
DWIDTH 9 0
BBX 6 11 1 0
VVECTOR 4 14
SWIDTH1 0 -1000
DWIDTH1 0 -17
BITMAP 
04
04
04
34
4C
84
84
84
84
4C
34
ENDCHAR
STARTCHAR char65
ENCODING 101
SWIDTH 529 0
DWIDTH 9 0
BBX 6 8 1 0
VVECTOR 4 14
SWIDTH1 0 -1000
DWIDTH1 0 -17
BITMAP 
30
48
84
FC
80
80
44
38
ENDCHAR
STARTCHAR char66
ENCODING 102
SWIDTH 294 0
DWIDTH 5 0
BBX 4 11 0 0
VVECTOR 2 14
SWIDTH1 0 -1000
DWIDTH1 0 -17
BITMAP 
30
40
40
F0
40
40
40
40
40
40
40
ENDCHAR
STARTCHAR char67
ENCODING 103
SWIDTH 529 0
DWIDTH 9 0
BBX 6 11 1 -3
VVECTOR 4 14
SWIDTH1 0 -1000
DWIDTH1 0 -17
BITMAP 
34
4C
84
84
84
84
4C
34
04
44
38
ENDCHAR
STARTCHAR char68
ENCODING 104
SWIDTH 529 0
DWIDTH 9 0
BBX 6 11 2 0
VVECTOR 5 14
SWIDTH1 0 -1000
DWIDTH1 0 -17
BITMAP 
80
80
80
B8
C4
84
84
84
84
84
84
ENDCHAR
STARTCHAR char69
ENCODING 105
SWIDTH 235 0
DWIDTH 4 0
BBX 1 11 1 0
VVECTOR 2 14
SWIDTH1 0 -1000
DWIDTH1 0 -17
BITMAP 
80
00
00
80
80
80
80
80
80
80
80
ENDCHAR
STARTCHAR char6A
ENCODING 106
SWIDTH 235 0
DWIDTH 4 0
BBX 3 14 0 -3
VVECTOR 2 14
SWIDTH1 0 -1000
DWIDTH1 0 -17
BITMAP 
20
00
00
20
20
20
20
20
20
20
20
20
20
C0
ENDCHAR
STARTCHAR char6B
ENCODING 107
SWIDTH 471 0
DWIDTH 8 0
BBX 7 11 1 0
VVECTOR 5 14
SWIDTH1 0 -1000
DWIDTH1 0 -17
BITMAP 
80
80
80
84
88
90
A0
D0
88
84
82
ENDCHAR
STARTCHAR char6C
ENCODING 108
SWIDTH 235 0
DWIDTH 4 0
BBX 1 11 1 0
VVECTOR 2 14
SWIDTH1 0 -1000
DWIDTH1 0 -17
BITMAP 
80
80
80
80
80
80
80
80
80
80
80
ENDCHAR
STARTCHAR char6D
ENCODING 109
SWIDTH 824 0
DWIDTH 14 0
BBX 11 8 2 0
VVECTOR 8 14
SWIDTH1 0 -1000
DWIDTH1 0 -17
BITMAP 
B9C0
C620
8420
8420
8420
8420
8420
8420
ENDCHAR
STARTCHAR char6E
ENCODING 110
SWIDTH 529 0
DWIDTH 9 0
BBX 6 8 2 0
VVECTOR 5 14
SWIDTH1 0 -1000
DWIDTH1 0 -17
BITMAP 
B8
C4
84
84
84
84
84
84
ENDCHAR
STARTCHAR char6F
ENCODING 111
SWIDTH 529 0
DWIDTH 9 0
BBX 7 8 1 0
VVECTOR 5 14
SWIDTH1 0 -1000
DWIDTH1 0 -17
BITMAP 
38
44
82
82
82
82
44
38
ENDCHAR
STARTCHAR char70
ENCODING 112
SWIDTH 529 0
DWIDTH 9 0
BBX 6 11 2 -3
VVECTOR 5 14
SWIDTH1 0 -1000
DWIDTH1 0 -17
BITMAP 
B0
C8
84
84
84
84
C8
B0
80
80
80
ENDCHAR
STARTCHAR char71
ENCODING 113
SWIDTH 529 0
DWIDTH 9 0
BBX 6 11 1 -3
VVECTOR 4 14
SWIDTH1 0 -1000
DWIDTH1 0 -17
BITMAP 
34
4C
84
84
84
84
4C
34
04
04
04
ENDCHAR
STARTCHAR char72
ENCODING 114
SWIDTH 353 0
DWIDTH 6 0
BBX 4 8 1 0
VVECTOR 3 14
SWIDTH1 0 -1000
DWIDTH1 0 -17
BITMAP 
B0
C0
80
80
80
80
80
80
ENDCHAR
STARTCHAR char73
ENCODING 115
SWIDTH 471 0
DWIDTH 8 0
BBX 4 8 2 0
VVECTOR 4 14
SWIDTH1 0 -1000
DWIDTH1 0 -17
BITMAP 
60
90
80
40
20
10
90
60
ENDCHAR
STARTCHAR char74
ENCODING 116
SWIDTH 294 0
DWIDTH 5 0
BBX 4 10 0 0
VVECTOR 2 14
SWIDTH1 0 -1000
DWIDTH1 0 -17
BITMAP 
40
40
F0
40
40
40
40
40
40
30
ENDCHAR
STARTCHAR char75
ENCODING 117
SWIDTH 529 0
DWIDTH 9 0
BBX 6 8 1 0
VVECTOR 4 14
SWIDTH1 0 -1000
DWIDTH1 0 -17
BITMAP 
84
84
84
84
84
84
8C
74
ENDCHAR
STARTCHAR char76
ENCODING 118
SWIDTH 529 0
DWIDTH 9 0
BBX 7 8 1 0
VVECTOR 5 14
SWIDTH1 0 -1000
DWIDTH1 0 -17
BITMAP 
82
82
44
44
28
28
10
10
ENDCHAR
STARTCHAR char77
ENCODING 119
SWIDTH 765 0
DWIDTH 13 0
BBX 11 8 1 0
VVECTOR 7 14
SWIDTH1 0 -1000
DWIDTH1 0 -17
BITMAP 
8420
8420
8A20
4A40
5140
5140
2080
2080
ENDCHAR
STARTCHAR char78
ENCODING 120
SWIDTH 529 0
DWIDTH 9 0
BBX 7 8 1 0
VVECTOR 5 14
SWIDTH1 0 -1000
DWIDTH1 0 -17
BITMAP 
82
44
28
10
10
28
44
82
ENDCHAR
STARTCHAR char79
ENCODING 121
SWIDTH 529 0
DWIDTH 9 0
BBX 7 11 1 -3
VVECTOR 5 14
SWIDTH1 0 -1000
DWIDTH1 0 -17
BITMAP 
82
82
44
44
28
28
10
10
20
20
C0
ENDCHAR
STARTCHAR char7A
ENCODING 122
SWIDTH 471 0
DWIDTH 8 0
BBX 6 8 1 0
VVECTOR 4 14
SWIDTH1 0 -1000
DWIDTH1 0 -17
BITMAP 
FC
04
08
10
20
40
80
FC
ENDCHAR
STARTCHAR char7B
ENCODING 123
SWIDTH 353 0
DWIDTH 6 0
BBX 5 16 0 -3
VVECTOR 3 14
SWIDTH1 0 -1000
DWIDTH1 0 -17
BITMAP 
18
20
20
20
20
20
20
C0
20
20
20
20
20
20
20
18
ENDCHAR
STARTCHAR char7C
ENCODING 124
SWIDTH 176 0
DWIDTH 3 0
BBX 1 15 1 -2
VVECTOR 2 14
SWIDTH1 0 -1000
DWIDTH1 0 -17
BITMAP 
80
80
80
80
80
80
80
80
80
80
80
80
80
80
80
ENDCHAR
STARTCHAR char7D
ENCODING 125
SWIDTH 353 0
DWIDTH 6 0
BBX 5 16 1 -3
VVECTOR 4 14
SWIDTH1 0 -1000
DWIDTH1 0 -17
BITMAP 
C0
20
20
20
20
20
20
18
20
20
20
20
20
20
20
C0
ENDCHAR
STARTCHAR char7E
ENCODING 126
SWIDTH 529 0
DWIDTH 9 0
BBX 7 2 1 12
VVECTOR 5 14
SWIDTH1 0 -1000
DWIDTH1 0 -17
BITMAP 
72
9C
ENDCHAR
STARTCHAR char7F
ENCODING 127
SWIDTH 176 0
DWIDTH 3 0
BBX 0 0 0 -3
VVECTOR 0 -3
SWIDTH1 0 0
DWIDTH1 0 0
BITMAP 
ENDCHAR
STARTCHAR char80
ENCODING 128
SWIDTH 647 0
DWIDTH 11 0
BBX 9 14 1 0
VVECTOR 6 14
SWIDTH1 0 -1000
DWIDTH1 0 -17
BITMAP 
2200
0000
0000
0800
1400
1400
2200
2200
4100
7F00
4100
8080
8080
8080
ENDCHAR
STARTCHAR char81
ENCODING 129
SWIDTH 647 0
DWIDTH 11 0
BBX 9 14 1 0
VVECTOR 6 14
SWIDTH1 0 -1000
DWIDTH1 0 -17
BITMAP 
0800
1400
1400
0800
1400
1400
2200
2200
4100
7F00
4100
8080
8080
8080
ENDCHAR
STARTCHAR char82
ENCODING 130
SWIDTH 647 0
DWIDTH 11 0
BBX 9 14 1 -3
VVECTOR 6 14
SWIDTH1 0 -1000
DWIDTH1 0 -17
BITMAP 
3E00
4100
8080
8080
8000
8000
8000
8080
8080
4100
3E00
0800
0400
1800
ENDCHAR
STARTCHAR char83
ENCODING 131
SWIDTH 529 0
DWIDTH 9 0
BBX 6 14 2 0
VVECTOR 5 14
SWIDTH1 0 -1000
DWIDTH1 0 -17
BITMAP 
08
10
00
FC
80
80
80
80
F8
80
80
80
80
FC
ENDCHAR
STARTCHAR char84
ENCODING 132
SWIDTH 706 0
DWIDTH 12 0
BBX 8 14 2 0
VVECTOR 6 14
SWIDTH1 0 -1000
DWIDTH1 0 -17
BITMAP 
39
4E
00
00
81
C1
A1
91
91
89
85
85
83
81
ENDCHAR
STARTCHAR char85
ENCODING 133
SWIDTH 706 0
DWIDTH 12 0
BBX 10 14 1 0
VVECTOR 6 14
SWIDTH1 0 -1000
DWIDTH1 0 -17
BITMAP 
2100
0000
0000
3F00
4080
8040
8040
8040
8040
8040
8040
8040
4080
3F00
ENDCHAR
STARTCHAR char86
ENCODING 134
SWIDTH 588 0
DWIDTH 10 0
BBX 8 14 1 0
VVECTOR 5 14
SWIDTH1 0 -1000
DWIDTH1 0 -17
BITMAP 
42
00
00
81
81
81
81
81
81
81
81
81
42
3C
ENDCHAR
STARTCHAR char87
ENCODING 135
SWIDTH 529 0
DWIDTH 9 0
BBX 6 12 1 0
VVECTOR 4 14
SWIDTH1 0 -1000
DWIDTH1 0 -17
BITMAP 
08
10
00
00
78
84
04
7C
84
84
8C
74
ENDCHAR
STARTCHAR char88
ENCODING 136
SWIDTH 529 0
DWIDTH 9 0
BBX 6 12 1 0
VVECTOR 4 14
SWIDTH1 0 -1000
DWIDTH1 0 -17
BITMAP 
20
10
00
00
78
84
04
7C
84
84
8C
74
ENDCHAR
STARTCHAR char89
ENCODING 137
SWIDTH 529 0
DWIDTH 9 0
BBX 6 12 1 0
VVECTOR 4 14
SWIDTH1 0 -1000
DWIDTH1 0 -17
BITMAP 
30
48
00
00
78
84
04
7C
84
84
8C
74
ENDCHAR
STARTCHAR char8A
ENCODING 138
SWIDTH 529 0
DWIDTH 9 0
BBX 6 11 1 0
VVECTOR 4 14
SWIDTH1 0 -1000
DWIDTH1 0 -17
BITMAP 
48
00
00
78
84
04
7C
84
84
8C
74
ENDCHAR
STARTCHAR char8B
ENCODING 139
SWIDTH 529 0
DWIDTH 9 0
BBX 7 12 1 0
VVECTOR 5 14
SWIDTH1 0 -1000
DWIDTH1 0 -17
BITMAP 
72
9C
00
00
78
84
04
7C
84
84
8C
74
ENDCHAR
STARTCHAR char8C
ENCODING 140
SWIDTH 529 0
DWIDTH 9 0
BBX 6 14 1 0
VVECTOR 4 14
SWIDTH1 0 -1000
DWIDTH1 0 -17
BITMAP 
30
48
48
30
00
00
78
84
04
7C
84
84
8C
74
ENDCHAR
STARTCHAR char8D
ENCODING 141
SWIDTH 529 0
DWIDTH 9 0
BBX 6 11 2 -3
VVECTOR 5 14
SWIDTH1 0 -1000
DWIDTH1 0 -17
BITMAP 
38
44
80
80
80
80
44
38
10
08
30
ENDCHAR
STARTCHAR char8E
ENCODING 142
SWIDTH 529 0
DWIDTH 9 0
BBX 6 12 1 0
VVECTOR 4 14
SWIDTH1 0 -1000
DWIDTH1 0 -17
BITMAP 
08
10
00
00
30
48
84
FC
80
80
44
38
ENDCHAR
STARTCHAR char8F
ENCODING 143
SWIDTH 529 0
DWIDTH 9 0
BBX 6 12 1 0
VVECTOR 4 14
SWIDTH1 0 -1000
DWIDTH1 0 -17
BITMAP 
40
20
00
00
30
48
84
FC
80
80
44
38
ENDCHAR
STARTCHAR char90
ENCODING 144
SWIDTH 529 0
DWIDTH 9 0
BBX 6 12 1 0
VVECTOR 4 14
SWIDTH1 0 -1000
DWIDTH1 0 -17
BITMAP 
30
48
00
00
30
48
84
FC
80
80
44
38
ENDCHAR
STARTCHAR char91
ENCODING 145
SWIDTH 529 0
DWIDTH 9 0
BBX 6 11 1 0
VVECTOR 4 14
SWIDTH1 0 -1000
DWIDTH1 0 -17
BITMAP 
48
00
00
30
48
84
FC
80
80
44
38
ENDCHAR
STARTCHAR char92
ENCODING 146
SWIDTH 235 0
DWIDTH 4 0
BBX 2 12 1 0
VVECTOR 2 14
SWIDTH1 0 -1000
DWIDTH1 0 -17
BITMAP 
40
80
00
00
80
80
80
80
80
80
80
80
ENDCHAR
STARTCHAR char93
ENCODING 147
SWIDTH 235 0
DWIDTH 4 0
BBX 2 12 0 0
VVECTOR 1 14
SWIDTH1 0 -1000
DWIDTH1 0 -17
BITMAP 
80
40
00
00
40
40
40
40
40
40
40
40
ENDCHAR
STARTCHAR char94
ENCODING 148
SWIDTH 235 0
DWIDTH 4 0
BBX 4 12 0 0
VVECTOR 2 14
SWIDTH1 0 -1000
DWIDTH1 0 -17
BITMAP 
60
90
00
00
40
40
40
40
40
40
40
40
ENDCHAR
STARTCHAR char95
ENCODING 149
SWIDTH 235 0
DWIDTH 4 0
BBX 4 11 0 0
VVECTOR 2 14
SWIDTH1 0 -1000
DWIDTH1 0 -17
BITMAP 
90
00
00
40
40
40
40
40
40
40
40
ENDCHAR
STARTCHAR char96
ENCODING 150
SWIDTH 529 0
DWIDTH 9 0
BBX 7 12 2 0
VVECTOR 6 14
SWIDTH1 0 -1000
DWIDTH1 0 -17
BITMAP 
72
9C
00
00
B8
C4
84
84
84
84
84
84
ENDCHAR
STARTCHAR char97
ENCODING 151
SWIDTH 529 0
DWIDTH 9 0
BBX 7 12 1 0
VVECTOR 5 14
SWIDTH1 0 -1000
DWIDTH1 0 -17
BITMAP 
08
10
00
00
38
44
82
82
82
82
44
38
ENDCHAR
STARTCHAR char98
ENCODING 152
SWIDTH 529 0
DWIDTH 9 0
BBX 7 12 1 0
VVECTOR 5 14
SWIDTH1 0 -1000
DWIDTH1 0 -17
BITMAP 
20
10
00
00
38
44
82
82
82
82
44
38
ENDCHAR
STARTCHAR char99
ENCODING 153
SWIDTH 529 0
DWIDTH 9 0
BBX 7 12 1 0
VVECTOR 5 14
SWIDTH1 0 -1000
DWIDTH1 0 -17
BITMAP 
10
28
00
00
38
44
82
82
82
82
44
38
ENDCHAR
STARTCHAR char9A
ENCODING 154
SWIDTH 529 0
DWIDTH 9 0
BBX 7 11 1 0
VVECTOR 5 14
SWIDTH1 0 -1000
DWIDTH1 0 -17
BITMAP 
44
00
00
38
44
82
82
82
82
44
38
ENDCHAR
STARTCHAR char9B
ENCODING 155
SWIDTH 529 0
DWIDTH 9 0
BBX 7 12 1 0
VVECTOR 5 14
SWIDTH1 0 -1000
DWIDTH1 0 -17
BITMAP 
72
9C
00
00
38
44
82
82
82
82
44
38
ENDCHAR
STARTCHAR char9C
ENCODING 156
SWIDTH 529 0
DWIDTH 9 0
BBX 6 12 1 0
VVECTOR 4 14
SWIDTH1 0 -1000
DWIDTH1 0 -17
BITMAP 
08
10
00
00
84
84
84
84
84
84
8C
74
ENDCHAR
STARTCHAR char9D
ENCODING 157
SWIDTH 529 0
DWIDTH 9 0
BBX 6 12 1 0
VVECTOR 4 14
SWIDTH1 0 -1000
DWIDTH1 0 -17
BITMAP 
20
10
00
00
84
84
84
84
84
84
8C
74
ENDCHAR
STARTCHAR char9E
ENCODING 158
SWIDTH 529 0
DWIDTH 9 0
BBX 6 12 1 0
VVECTOR 4 14
SWIDTH1 0 -1000
DWIDTH1 0 -17
BITMAP 
30
48
00
00
84
84
84
84
84
84
8C
74
ENDCHAR
STARTCHAR char9F
ENCODING 159
SWIDTH 529 0
DWIDTH 9 0
BBX 6 11 1 0
VVECTOR 4 14
SWIDTH1 0 -1000
DWIDTH1 0 -17
BITMAP 
48
00
00
84
84
84
84
84
84
8C
74
ENDCHAR
STARTCHAR charA0
ENCODING 160
SWIDTH 529 0
DWIDTH 9 0
BBX 7 12 1 -1
VVECTOR 5 14
SWIDTH1 0 -1000
DWIDTH1 0 -17
BITMAP 
10
10
10
FE
10
10
10
10
10
10
10
10
ENDCHAR
STARTCHAR charA1
ENCODING 161
SWIDTH 353 0
DWIDTH 6 0
BBX 4 4 1 7
VVECTOR 3 14
SWIDTH1 0 -1000
DWIDTH1 0 -17
BITMAP 
60
90
90
60
ENDCHAR
STARTCHAR charA2
ENCODING 162
SWIDTH 529 0
DWIDTH 9 0
BBX 6 11 1 0
VVECTOR 4 14
SWIDTH1 0 -1000
DWIDTH1 0 -17
BITMAP 
10
10
38
44
80
80
80
44
38
10
10
ENDCHAR
STARTCHAR charA3
ENCODING 163
SWIDTH 529 0
DWIDTH 9 0
BBX 7 11 1 0
VVECTOR 5 14
SWIDTH1 0 -1000
DWIDTH1 0 -17
BITMAP 
38
44
40
40
F0
40
40
40
40
42
FC
ENDCHAR
STARTCHAR charA4
ENCODING 164
SWIDTH 353 0
DWIDTH 6 0
BBX 5 11 0 0
VVECTOR 3 14
SWIDTH1 0 -1000
DWIDTH1 0 -17
BITMAP 
60
90
80
60
90
88
48
30
08
48
30
ENDCHAR
STARTCHAR charA5
ENCODING 165
SWIDTH 353 0
DWIDTH 6 0
BBX 4 4 1 4
VVECTOR 3 14
SWIDTH1 0 -1000
DWIDTH1 0 -17
BITMAP 
60
F0
F0
60
ENDCHAR
STARTCHAR charA6
ENCODING 166
SWIDTH 529 0
DWIDTH 9 0
BBX 7 11 1 0
VVECTOR 5 14
SWIDTH1 0 -1000
DWIDTH1 0 -17
BITMAP 
6E
A8
A8
A8
A8
68
28
28
28
28
28
ENDCHAR
STARTCHAR charA7
ENCODING 167
SWIDTH 529 0
DWIDTH 9 0
BBX 6 11 2 0
VVECTOR 5 14
SWIDTH1 0 -1000
DWIDTH1 0 -17
BITMAP 
30
48
84
84
88
98
84
84
84
88
B0
ENDCHAR
STARTCHAR charA8
ENCODING 168
SWIDTH 765 0
DWIDTH 13 0
BBX 10 10 1 1
VVECTOR 6 14
SWIDTH1 0 -1000
DWIDTH1 0 -17
BITMAP 
3F00
4080
8040
9C40
9240
9C40
9240
8040
4080
3F00
ENDCHAR
STARTCHAR charA9
ENCODING 169
SWIDTH 765 0
DWIDTH 13 0
BBX 10 10 1 1
VVECTOR 6 14
SWIDTH1 0 -1000
DWIDTH1 0 -17
BITMAP 
3F00
4080
8040
8E40
9040
9040
8E40
8040
4080
3F00
ENDCHAR
STARTCHAR charAA
ENCODING 170
SWIDTH 529 0
DWIDTH 9 0
BBX 8 3 0 8
VVECTOR 4 14
SWIDTH1 0 -1000
DWIDTH1 0 -17
BITMAP 
F1
5B
55
ENDCHAR
STARTCHAR charAB
ENCODING 171
SWIDTH 529 0
DWIDTH 9 0
BBX 2 2 4 12
VVECTOR 5 14
SWIDTH1 0 -1000
DWIDTH1 0 -17
BITMAP 
40
80
ENDCHAR
STARTCHAR charAC
ENCODING 172
SWIDTH 529 0
DWIDTH 9 0
BBX 5 1 2 13
VVECTOR 5 14
SWIDTH1 0 -1000
DWIDTH1 0 -17
BITMAP 
88
ENDCHAR
STARTCHAR charAD
ENCODING 173
SWIDTH 765 0
DWIDTH 13 0
BBX 11 8 1 1
VVECTOR 7 14
SWIDTH1 0 -1000
DWIDTH1 0 -17
BITMAP 
0040
0080
FFE0
0200
0400
FFE0
1000
2000
ENDCHAR
STARTCHAR charAE
ENCODING 174
SWIDTH 941 0
DWIDTH 16 0
BBX 14 11 1 0
VVECTOR 8 14
SWIDTH1 0 -1000
DWIDTH1 0 -17
BITMAP 
07FC
0880
0880
1080
1080
20F8
3F80
4080
4080
8080
80FC
ENDCHAR
STARTCHAR charAF
ENCODING 175
SWIDTH 706 0
DWIDTH 12 0
BBX 10 11 1 0
VVECTOR 6 14
SWIDTH1 0 -1000
DWIDTH1 0 -17
BITMAP 
3F40
4080
8140
8240
8440
8440
8840
9040
A040
4080
BF00
ENDCHAR
STARTCHAR charB0
ENCODING 176
SWIDTH 765 0
DWIDTH 13 0
BBX 11 5 1 3
VVECTOR 7 14
SWIDTH1 0 -1000
DWIDTH1 0 -17
BITMAP 
79C0
8220
8420
8820
73C0
ENDCHAR
STARTCHAR charB1
ENCODING 177
SWIDTH 765 0
DWIDTH 13 0
BBX 11 11 1 0
VVECTOR 7 14
SWIDTH1 0 -1000
DWIDTH1 0 -17
BITMAP 
0400
0400
0400
0400
FFE0
0400
0400
0400
0400
0000
FFE0
ENDCHAR
STARTCHAR charB2
ENCODING 178
SWIDTH 529 0
DWIDTH 9 0
BBX 7 9 1 0
VVECTOR 5 14
SWIDTH1 0 -1000
DWIDTH1 0 -17
BITMAP 
08
10
20
40
20
10
08
00
FE
ENDCHAR
STARTCHAR charB3
ENCODING 179
SWIDTH 529 0
DWIDTH 9 0
BBX 7 9 1 0
VVECTOR 5 14
SWIDTH1 0 -1000
DWIDTH1 0 -17
BITMAP 
20
10
08
04
08
10
20
00
FE
ENDCHAR
STARTCHAR charB4
ENCODING 180
SWIDTH 588 0
DWIDTH 10 0
BBX 7 11 1 0
VVECTOR 5 14
SWIDTH1 0 -1000
DWIDTH1 0 -17
BITMAP 
82
82
44
44
28
28
FE
10
FE
10
10
ENDCHAR
STARTCHAR charB5
ENCODING 181
SWIDTH 529 0
DWIDTH 9 0
BBX 6 10 2 -2
VVECTOR 5 14
SWIDTH1 0 -1000
DWIDTH1 0 -17
BITMAP 
88
88
88
88
88
88
C8
B4
80
80
ENDCHAR
STARTCHAR charB6
ENCODING 182
SWIDTH 529 0
DWIDTH 9 0
BBX 7 11 1 0
VVECTOR 5 14
SWIDTH1 0 -1000
DWIDTH1 0 -17
BITMAP 
18
04
02
3A
46
82
82
82
82
44
38
ENDCHAR
STARTCHAR charB7
ENCODING 183
SWIDTH 765 0
DWIDTH 13 0
BBX 11 16 1 -3
VVECTOR 7 14
SWIDTH1 0 -1000
DWIDTH1 0 -17
BITMAP 
FF80
8040
4020
2000
1000
0800
0400
0200
0200
0400
0800
1000
2000
4020
8040
FF80
ENDCHAR
STARTCHAR charB8
ENCODING 184
SWIDTH 765 0
DWIDTH 13 0
BBX 11 11 1 0
VVECTOR 7 14
SWIDTH1 0 -1000
DWIDTH1 0 -17
BITMAP 
FFE0
1100
1100
1100
1100
1100
1100
1100
1100
1100
1100
ENDCHAR
STARTCHAR charB9
ENCODING 185
SWIDTH 765 0
DWIDTH 13 0
BBX 11 9 1 0
VVECTOR 7 14
SWIDTH1 0 -1000
DWIDTH1 0 -17
BITMAP 
0020
7FC0
9100
1100
1100
1100
1100
1100
1100
ENDCHAR
STARTCHAR charBA
ENCODING 186
SWIDTH 353 0
DWIDTH 6 0
BBX 5 16 1 -3
VVECTOR 4 14
SWIDTH1 0 -1000
DWIDTH1 0 -17
BITMAP 
18
20
20
20
20
20
20
20
20
20
20
20
20
20
20
C0
ENDCHAR
STARTCHAR charBB
ENCODING 187
SWIDTH 529 0
DWIDTH 9 0
BBX 6 11 1 0
VVECTOR 4 14
SWIDTH1 0 -1000
DWIDTH1 0 -17
BITMAP 
78
84
04
7C
84
84
8C
74
00
00
FC
ENDCHAR
STARTCHAR charBC
ENCODING 188
SWIDTH 529 0
DWIDTH 9 0
BBX 7 11 1 0
VVECTOR 5 14
SWIDTH1 0 -1000
DWIDTH1 0 -17
BITMAP 
38
44
82
82
82
82
44
38
00
00
FE
ENDCHAR
STARTCHAR charBD
ENCODING 189
SWIDTH 765 0
DWIDTH 13 0
BBX 10 11 1 0
VVECTOR 6 14
SWIDTH1 0 -1000
DWIDTH1 0 -17
BITMAP 
3F00
4080
8040
8040
8040
4080
4080
2100
2100
9240
7380
ENDCHAR
STARTCHAR charBE
ENCODING 190
SWIDTH 765 0
DWIDTH 13 0
BBX 11 8 1 0
VVECTOR 7 14
SWIDTH1 0 -1000
DWIDTH1 0 -17
BITMAP 
7980
8640
0420
7FE0
8400
8400
8A20
71C0
ENDCHAR
STARTCHAR charBF
ENCODING 191
SWIDTH 529 0
DWIDTH 9 0
BBX 7 8 1 0
VVECTOR 5 14
SWIDTH1 0 -1000
DWIDTH1 0 -17
BITMAP 
3A
44
8A
92
92
A2
44
B8
ENDCHAR
STARTCHAR charC0
ENCODING 192
SWIDTH 529 0
DWIDTH 9 0
BBX 7 11 1 0
VVECTOR 5 14
SWIDTH1 0 -1000
DWIDTH1 0 -17
BITMAP 
10
10
00
00
10
20
40
80
82
44
38
ENDCHAR
STARTCHAR charC1
ENCODING 193
SWIDTH 353 0
DWIDTH 6 0
BBX 1 11 2 0
VVECTOR 3 14
SWIDTH1 0 -1000
DWIDTH1 0 -17
BITMAP 
80
80
00
00
80
80
80
80
80
80
80
ENDCHAR
STARTCHAR charC2
ENCODING 194
SWIDTH 765 0
DWIDTH 13 0
BBX 11 4 1 2
VVECTOR 7 14
SWIDTH1 0 -1000
DWIDTH1 0 -17
BITMAP 
FFE0
0020
0020
0020
ENDCHAR
STARTCHAR charC3
ENCODING 195
SWIDTH 765 0
DWIDTH 13 0
BBX 11 15 1 -2
VVECTOR 7 14
SWIDTH1 0 -1000
DWIDTH1 0 -17
BITMAP 
00E0
0080
0080
0100
0100
0100
0200
0200
0200
0400
0400
0400
E800
1800
0800
ENDCHAR
STARTCHAR charC4
ENCODING 196
SWIDTH 529 0
DWIDTH 9 0
BBX 7 13 1 -2
VVECTOR 5 14
SWIDTH1 0 -1000
DWIDTH1 0 -17
BITMAP 
0C
12
10
10
10
7C
10
10
10
10
10
90
60
ENDCHAR
STARTCHAR charC5
ENCODING 197
SWIDTH 765 0
DWIDTH 13 0
BBX 10 5 1 3
VVECTOR 6 14
SWIDTH1 0 -1000
DWIDTH1 0 -17
BITMAP 
7840
8780
0000
7840
8780
ENDCHAR
STARTCHAR charC6
ENCODING 198
SWIDTH 765 0
DWIDTH 13 0
BBX 10 11 1 0
VVECTOR 6 14
SWIDTH1 0 -1000
DWIDTH1 0 -17
BITMAP 
0C00
0C00
1600
1600
2300
2300
4180
4180
80C0
80C0
FFC0
ENDCHAR
STARTCHAR charC7
ENCODING 199
SWIDTH 529 0
DWIDTH 9 0
BBX 7 5 1 3
VVECTOR 5 14
SWIDTH1 0 -1000
DWIDTH1 0 -17
BITMAP 
22
44
88
44
22
ENDCHAR
STARTCHAR charC8
ENCODING 200
SWIDTH 529 0
DWIDTH 9 0
BBX 7 5 1 3
VVECTOR 5 14
SWIDTH1 0 -1000
DWIDTH1 0 -17
BITMAP 
88
44
22
44
88
ENDCHAR
STARTCHAR charC9
ENCODING 201
SWIDTH 765 0
DWIDTH 13 0
BBX 12 1 1 0
VVECTOR 7 14
SWIDTH1 0 -1000
DWIDTH1 0 -17
BITMAP 
C630
ENDCHAR
STARTCHAR charCA
ENCODING 202
SWIDTH 294 0
DWIDTH 5 0
BBX 0 0 0 -3
VVECTOR 0 -3
SWIDTH1 0 0
DWIDTH1 0 0
BITMAP 
ENDCHAR
STARTCHAR charCB
ENCODING 203
SWIDTH 647 0
DWIDTH 11 0
BBX 9 14 1 0
VVECTOR 6 14
SWIDTH1 0 -1000
DWIDTH1 0 -17
BITMAP 
1000
0800
0000
0800
1400
1400
2200
2200
4100
7F00
4100
8080
8080
8080
ENDCHAR
STARTCHAR charCC
ENCODING 204
SWIDTH 647 0
DWIDTH 11 0
BBX 9 14 1 0
VVECTOR 6 14
SWIDTH1 0 -1000
DWIDTH1 0 -17
BITMAP 
1A00
2C00
0000
0800
1400
1400
2200
2200
4100
7F00
4100
8080
8080
8080
ENDCHAR
STARTCHAR charCD
ENCODING 205
SWIDTH 706 0
DWIDTH 12 0
BBX 10 14 1 0
VVECTOR 6 14
SWIDTH1 0 -1000
DWIDTH1 0 -17
BITMAP 
1C80
2700
0000
0000
3F00
4080
8040
8040
8040
8040
8040
8040
4080
3F00
ENDCHAR
STARTCHAR charCE
ENCODING 206
SWIDTH 1059 0
DWIDTH 18 0
BBX 16 11 1 0
VVECTOR 9 14
SWIDTH1 0 -1000
DWIDTH1 0 -17
BITMAP 
3EFF
4180
8080
8080
8080
80FE
8080
8080
8080
4180
3EFF
ENDCHAR
STARTCHAR charCF
ENCODING 207
SWIDTH 882 0
DWIDTH 15 0
BBX 13 8 1 0
VVECTOR 8 14
SWIDTH1 0 -1000
DWIDTH1 0 -17
BITMAP 
38E0
4510
8208
83F8
8200
8200
4508
38F0
ENDCHAR
STARTCHAR charD0
ENCODING 208
SWIDTH 294 0
DWIDTH 5 0
BBX 3 1 1 5
VVECTOR 3 14
SWIDTH1 0 -1000
DWIDTH1 0 -17
BITMAP 
E0
ENDCHAR
STARTCHAR charD1
ENCODING 209
SWIDTH 765 0
DWIDTH 13 0
BBX 13 1 0 5
VVECTOR 7 14
SWIDTH1 0 -1000
DWIDTH1 0 -17
BITMAP 
FFF8
ENDCHAR
STARTCHAR charD2
ENCODING 210
SWIDTH 412 0
DWIDTH 7 0
BBX 5 4 1 7
VVECTOR 4 14
SWIDTH1 0 -1000
DWIDTH1 0 -17
BITMAP 
48
90
90
90
ENDCHAR
STARTCHAR charD3
ENCODING 211
SWIDTH 412 0
DWIDTH 7 0
BBX 5 4 1 7
VVECTOR 4 14
SWIDTH1 0 -1000
DWIDTH1 0 -17
BITMAP 
48
48
48
90
ENDCHAR
STARTCHAR charD4
ENCODING 212
SWIDTH 235 0
DWIDTH 4 0
BBX 2 4 1 7
VVECTOR 2 14
SWIDTH1 0 -1000
DWIDTH1 0 -17
BITMAP 
40
80
80
80
ENDCHAR
STARTCHAR charD5
ENCODING 213
SWIDTH 235 0
DWIDTH 4 0
BBX 2 4 1 7
VVECTOR 2 14
SWIDTH1 0 -1000
DWIDTH1 0 -17
BITMAP 
40
40
40
80
ENDCHAR
STARTCHAR charD6
ENCODING 214
SWIDTH 765 0
DWIDTH 13 0
BBX 10 9 2 1
VVECTOR 7 14
SWIDTH1 0 -1000
DWIDTH1 0 -17
BITMAP 
0C00
0C00
0000
0000
FFC0
0000
0000
0C00
0C00
ENDCHAR
STARTCHAR charD7
ENCODING 215
SWIDTH 765 0
DWIDTH 13 0
BBX 9 9 2 1
VVECTOR 7 14
SWIDTH1 0 -1000
DWIDTH1 0 -17
BITMAP 
0800
1400
2200
4100
8080
4100
2200
1400
0800
ENDCHAR
STARTCHAR charD8
ENCODING 216
SWIDTH 529 0
DWIDTH 9 0
BBX 7 14 1 -3
VVECTOR 5 14
SWIDTH1 0 -1000
DWIDTH1 0 -17
BITMAP 
44
00
00
82
82
44
44
28
28
10
10
20
20
C0
ENDCHAR
STARTCHAR missing
ENCODING -1
SWIDTH 647 0
DWIDTH 11 0
BBX 11 15 0 -2
VVECTOR 6 14
SWIDTH1 0 -1000
DWIDTH1 0 -17
BITMAP 
FFE0
E0E0
C060
CE60
CE60
FE60
FE60
FCE0
F9E0
F9E0
F9E0
FFE0
F9E0
F9E0
FFE0
ENDCHAR
ENDFONT
